<svg height="170.83627702140163" width="92.02319069745333" xmlns="http://www.w3.org/2000/svg">
<polyline points="26.02644027761683,0.0 26.81674900923172,0.4146919565066729 28.439049343845014,1.704146431507081 30.04358676911286,2.9830192814448786 30.981641584001345,4.835025462487325 31.409694576465235,6.796907170043324 33.435843788651475,7.176387887593924 35.43474708331171,7.552091252165029 37.214939382075215,7.947833254485936 38.98624236163187,7.84026797122636 40.654030642821056,8.640918370096973 42.42355000066496,9.496427065636949 43.875073504386975,10.932571150901852 44.98472082576752,11.605602077546875 46.10822458793898,12.139876754114251 47.233744730591155,12.740775679341388 48.58824295505184,14.125086167829762 49.93596612817325,15.656319408994646 50.279894782675115,17.816009538649794 50.06300197167788,20.19989184971597 49.60000752874299,22.846761515035713 49.69622339438139,25.75733892666033 49.604431693055645,28.335888762178527 48.18988962481497,31.53860358623808 46.67350835874545,35.42781026744569 45.14974575392918,39.34005786275654 43.935970512317866,42.90765698338737 42.398965244064534,45.97195562581954 40.394133126250665,48.75041249635077 38.90776180062116,51.401604970503215 38.26914508303574,54.22949655414525 38.08928412071936,57.23051567861247 37.352052415658704,60.11291947453395 37.21188473333041,62.729274754770344 38.05645384570313,65.5016572103325 38.89668072688406,68.41397035116275 39.55242832902117,72.37789678257275 39.79491085863898,77.26533017574783 40.12169608300929,81.76719283555076 40.33268958757037,86.09232226518341 41.15429084115917,91.3009977440226 42.33463730613573,94.71590353643438 43.69122399034307,97.94144981949665 45.22431522988791,101.271410759295 46.801979295595295,104.86149467602294 47.90784762395752,108.27034498649589 50.089435062602064,110.7481301792013 52.14653232640222,112.70532912908878 54.126354830403365,114.5432554331669 56.25828333964426,117.45013466559794 57.769252858433234,120.13971422910652 60.52436478840774,123.96511430375108 63.52542831523932,127.72680888778523 65.9379233068082,132.26679610803467 68.06320871597006,136.52644828930556 69.93772192898976,140.02910908957838 72.86390201776541,144.1784865132582 75.52172126818289,146.70194856960552 77.80093742376039,149.24543616862826 79.5246352055517,151.1788916389842 79.79080168472893,152.95013106131566 80.26992645445554,154.21309932286266 80.84096560456297,155.19162190735736 80.79700735186185,156.1338979009799 80.57891811239563,157.39714550172874 80.86601945772242,159.5038256108727 80.45062889655674,160.132212624178 79.9103165126337,160.83627702140163 79.63771671890741,160.60042786425518 80.68501203932878,159.48175845625514 81.69018004608401,158.37168946988513 82.02319069745333,157.73424676944376 81.587794998752,157.96538347916098 80.99436207529581,158.06705515980772 78.81123077609817,157.3771652726252 76.4908174582454,156.191676691033 74.22825296530425,155.02924866780722 71.61001188759398,153.80306503606852 70.46474525574558,153.75957455318692 68.9922042634299,153.53599553044438 66.55721859666212,152.82474658356085 64.32352119506419,152.37369810447132 62.379170486542975,151.99823240415958 58.72546332731706,151.0627690783448 54.92326352704575,150.33020955262828 50.183739240586675,149.92369875684398 45.19320343427751,148.8980177420057 41.901185706813926,148.11816222952825 37.5472455540454,146.30401898219836 33.53926889134466,143.07536248972357 29.62171107178123,139.98173122312426 25.348723392301487,138.58104251305778 21.187355471561684,137.10731250169513 17.761306561892717,135.35046038403075 14.383402789148166,133.56687967011578 12.073616695487676,132.20682345171448 9.203764126678166,129.63386073339302 6.58680752389704,127.4596594845996 3.689167624424048,124.46967421286863 0.0,121.16112177319806 " style="fill:none;stroke:black;stroke-width:3" />
</svg>
