<svg height="170.83627702140163" width="92.02319069745333" version="1.1" xmlns="http://www.w3.org/2000/svg">
<line x1="26.02644027761683" y1="0.0" x2="26.81674900923172" y2="0.4146919565066729" stroke="orange" stroke-width="5"/>
<line x1="26.81674900923172" y1="0.4146919565066729" x2="28.439049343845014" y2="1.704146431507081" stroke="orange" stroke-width="5"/>
<line x1="28.439049343845014" y1="1.704146431507081" x2="30.04358676911286" y2="2.9830192814448786" stroke="orange" stroke-width="5"/>
<line x1="30.04358676911286" y1="2.9830192814448786" x2="30.981641584001345" y2="4.835025462487325" stroke="orange" stroke-width="5"/>
<line x1="30.981641584001345" y1="4.835025462487325" x2="31.409694576465235" y2="6.796907170043324" stroke="orange" stroke-width="5"/>
<line x1="31.409694576465235" y1="6.796907170043324" x2="33.435843788651475" y2="7.176387887593924" stroke="orange" stroke-width="5"/>
<line x1="33.435843788651475" y1="7.176387887593924" x2="35.43474708331171" y2="7.552091252165029" stroke="orange" stroke-width="5"/>
<line x1="35.43474708331171" y1="7.552091252165029" x2="37.214939382075215" y2="7.947833254485936" stroke="orange" stroke-width="5"/>
<line x1="37.214939382075215" y1="7.947833254485936" x2="38.98624236163187" y2="7.84026797122636" stroke="orange" stroke-width="5"/>
<line x1="38.98624236163187" y1="7.84026797122636" x2="40.654030642821056" y2="8.640918370096973" stroke="orange" stroke-width="5"/>
<line x1="40.654030642821056" y1="8.640918370096973" x2="42.42355000066496" y2="9.496427065636949" stroke="orange" stroke-width="5"/>
<line x1="42.42355000066496" y1="9.496427065636949" x2="43.875073504386975" y2="10.932571150901852" stroke="orange" stroke-width="5"/>
<line x1="43.875073504386975" y1="10.932571150901852" x2="44.98472082576752" y2="11.605602077546875" stroke="orange" stroke-width="5"/>
<line x1="44.98472082576752" y1="11.605602077546875" x2="46.10822458793898" y2="12.139876754114251" stroke="orange" stroke-width="5"/>
<line x1="46.10822458793898" y1="12.139876754114251" x2="47.233744730591155" y2="12.740775679341388" stroke="orange" stroke-width="5"/>
<line x1="47.233744730591155" y1="12.740775679341388" x2="48.58824295505184" y2="14.125086167829762" stroke="orange" stroke-width="5"/>
<line x1="48.58824295505184" y1="14.125086167829762" x2="49.93596612817325" y2="15.656319408994646" stroke="orange" stroke-width="5"/>
<line x1="49.93596612817325" y1="15.656319408994646" x2="50.279894782675115" y2="17.816009538649794" stroke="orange" stroke-width="5"/>
<line x1="50.279894782675115" y1="17.816009538649794" x2="50.06300197167788" y2="20.19989184971597" stroke="orange" stroke-width="5"/>
<line x1="50.06300197167788" y1="20.19989184971597" x2="49.60000752874299" y2="22.846761515035713" stroke="orange" stroke-width="5"/>
<line x1="49.60000752874299" y1="22.846761515035713" x2="49.69622339438139" y2="25.75733892666033" stroke="orange" stroke-width="5"/>
<line x1="49.69622339438139" y1="25.75733892666033" x2="49.604431693055645" y2="28.335888762178527" stroke="orange" stroke-width="5"/>
<line x1="49.604431693055645" y1="28.335888762178527" x2="48.18988962481497" y2="31.53860358623808" stroke="orange" stroke-width="5"/>
<line x1="48.18988962481497" y1="31.53860358623808" x2="46.67350835874545" y2="35.42781026744569" stroke="orange" stroke-width="5"/>
<line x1="46.67350835874545" y1="35.42781026744569" x2="45.14974575392918" y2="39.34005786275654" stroke="orange" stroke-width="5"/>
<line x1="45.14974575392918" y1="39.34005786275654" x2="43.935970512317866" y2="42.90765698338737" stroke="orange" stroke-width="5"/>
<line x1="43.935970512317866" y1="42.90765698338737" x2="42.398965244064534" y2="45.97195562581954" stroke="orange" stroke-width="5"/>
<line x1="42.398965244064534" y1="45.97195562581954" x2="40.394133126250665" y2="48.75041249635077" stroke="orange" stroke-width="5"/>
<line x1="40.394133126250665" y1="48.75041249635077" x2="38.90776180062116" y2="51.401604970503215" stroke="orange" stroke-width="5"/>
<line x1="38.90776180062116" y1="51.401604970503215" x2="38.26914508303574" y2="54.22949655414525" stroke="orange" stroke-width="5"/>
<line x1="38.26914508303574" y1="54.22949655414525" x2="38.08928412071936" y2="57.23051567861247" stroke="orange" stroke-width="5"/>
<line x1="38.08928412071936" y1="57.23051567861247" x2="37.352052415658704" y2="60.11291947453395" stroke="orange" stroke-width="5"/>
<line x1="37.352052415658704" y1="60.11291947453395" x2="37.21188473333041" y2="62.729274754770344" stroke="orange" stroke-width="5"/>
<line x1="37.21188473333041" y1="62.729274754770344" x2="38.05645384570313" y2="65.5016572103325" stroke="orange" stroke-width="5"/>
<line x1="38.05645384570313" y1="65.5016572103325" x2="38.89668072688406" y2="68.41397035116275" stroke="orange" stroke-width="5"/>
<line x1="38.89668072688406" y1="68.41397035116275" x2="39.55242832902117" y2="72.37789678257275" stroke="orange" stroke-width="5"/>
<line x1="39.55242832902117" y1="72.37789678257275" x2="39.79491085863898" y2="77.26533017574783" stroke="orange" stroke-width="5"/>
<line x1="39.79491085863898" y1="77.26533017574783" x2="40.12169608300929" y2="81.76719283555076" stroke="orange" stroke-width="5"/>
<line x1="40.12169608300929" y1="81.76719283555076" x2="40.33268958757037" y2="86.09232226518341" stroke="orange" stroke-width="5"/>
<line x1="40.33268958757037" y1="86.09232226518341" x2="41.15429084115917" y2="91.3009977440226" stroke="orange" stroke-width="5"/>
<line x1="41.15429084115917" y1="91.3009977440226" x2="42.33463730613573" y2="94.71590353643438" stroke="orange" stroke-width="5"/>
<line x1="42.33463730613573" y1="94.71590353643438" x2="43.69122399034307" y2="97.94144981949665" stroke="orange" stroke-width="5"/>
<line x1="43.69122399034307" y1="97.94144981949665" x2="45.22431522988791" y2="101.271410759295" stroke="orange" stroke-width="5"/>
<line x1="45.22431522988791" y1="101.271410759295" x2="46.801979295595295" y2="104.86149467602294" stroke="orange" stroke-width="5"/>
<line x1="46.801979295595295" y1="104.86149467602294" x2="47.90784762395752" y2="108.27034498649589" stroke="orange" stroke-width="5"/>
<line x1="47.90784762395752" y1="108.27034498649589" x2="50.089435062602064" y2="110.7481301792013" stroke="orange" stroke-width="5"/>
<line x1="50.089435062602064" y1="110.7481301792013" x2="52.14653232640222" y2="112.70532912908878" stroke="orange" stroke-width="5"/>
<line x1="52.14653232640222" y1="112.70532912908878" x2="54.126354830403365" y2="114.5432554331669" stroke="orange" stroke-width="5"/>
<line x1="54.126354830403365" y1="114.5432554331669" x2="56.25828333964426" y2="117.45013466559794" stroke="orange" stroke-width="5"/>
<line x1="56.25828333964426" y1="117.45013466559794" x2="57.769252858433234" y2="120.13971422910652" stroke="orange" stroke-width="5"/>
<line x1="57.769252858433234" y1="120.13971422910652" x2="60.52436478840774" y2="123.96511430375108" stroke="orange" stroke-width="5"/>
<line x1="60.52436478840774" y1="123.96511430375108" x2="63.52542831523932" y2="127.72680888778523" stroke="orange" stroke-width="5"/>
<line x1="63.52542831523932" y1="127.72680888778523" x2="65.9379233068082" y2="132.26679610803467" stroke="orange" stroke-width="5"/>
<line x1="65.9379233068082" y1="132.26679610803467" x2="68.06320871597006" y2="136.52644828930556" stroke="orange" stroke-width="5"/>
<line x1="68.06320871597006" y1="136.52644828930556" x2="69.93772192898976" y2="140.02910908957838" stroke="orange" stroke-width="5"/>
<line x1="69.93772192898976" y1="140.02910908957838" x2="72.86390201776541" y2="144.1784865132582" stroke="orange" stroke-width="5"/>
<line x1="72.86390201776541" y1="144.1784865132582" x2="75.52172126818289" y2="146.70194856960552" stroke="orange" stroke-width="5"/>
<line x1="75.52172126818289" y1="146.70194856960552" x2="77.80093742376039" y2="149.24543616862826" stroke="orange" stroke-width="5"/>
<line x1="77.80093742376039" y1="149.24543616862826" x2="79.5246352055517" y2="151.1788916389842" stroke="orange" stroke-width="5"/>
<line x1="79.5246352055517" y1="151.1788916389842" x2="79.79080168472893" y2="152.95013106131566" stroke="orange" stroke-width="5"/>
<line x1="79.79080168472893" y1="152.95013106131566" x2="80.26992645445554" y2="154.21309932286266" stroke="orange" stroke-width="5"/>
<line x1="80.26992645445554" y1="154.21309932286266" x2="80.84096560456297" y2="155.19162190735736" stroke="orange" stroke-width="5"/>
<line x1="80.84096560456297" y1="155.19162190735736" x2="80.79700735186185" y2="156.1338979009799" stroke="orange" stroke-width="5"/>
<line x1="80.79700735186185" y1="156.1338979009799" x2="80.57891811239563" y2="157.39714550172874" stroke="orange" stroke-width="5"/>
<line x1="80.57891811239563" y1="157.39714550172874" x2="80.86601945772242" y2="159.5038256108727" stroke="orange" stroke-width="5"/>
<line x1="80.86601945772242" y1="159.5038256108727" x2="80.45062889655674" y2="160.132212624178" stroke="orange" stroke-width="5"/>
<line x1="80.45062889655674" y1="160.132212624178" x2="79.9103165126337" y2="160.83627702140163" stroke="orange" stroke-width="5"/>
<line x1="79.9103165126337" y1="160.83627702140163" x2="79.63771671890741" y2="160.60042786425518" stroke="orange" stroke-width="5"/>
<line x1="79.63771671890741" y1="160.60042786425518" x2="80.68501203932878" y2="159.48175845625514" stroke="orange" stroke-width="5"/>
<line x1="80.68501203932878" y1="159.48175845625514" x2="81.69018004608401" y2="158.37168946988513" stroke="orange" stroke-width="5"/>
<line x1="81.69018004608401" y1="158.37168946988513" x2="82.02319069745333" y2="157.73424676944376" stroke="orange" stroke-width="5"/>
<line x1="82.02319069745333" y1="157.73424676944376" x2="81.587794998752" y2="157.96538347916098" stroke="orange" stroke-width="5"/>
<line x1="81.587794998752" y1="157.96538347916098" x2="80.99436207529581" y2="158.06705515980772" stroke="orange" stroke-width="5"/>
<line x1="80.99436207529581" y1="158.06705515980772" x2="78.81123077609817" y2="157.3771652726252" stroke="orange" stroke-width="5"/>
<line x1="78.81123077609817" y1="157.3771652726252" x2="76.4908174582454" y2="156.191676691033" stroke="orange" stroke-width="5"/>
<line x1="76.4908174582454" y1="156.191676691033" x2="74.22825296530425" y2="155.02924866780722" stroke="orange" stroke-width="5"/>
<line x1="74.22825296530425" y1="155.02924866780722" x2="71.61001188759398" y2="153.80306503606852" stroke="orange" stroke-width="5"/>
<line x1="71.61001188759398" y1="153.80306503606852" x2="70.46474525574558" y2="153.75957455318692" stroke="orange" stroke-width="5"/>
<line x1="70.46474525574558" y1="153.75957455318692" x2="68.9922042634299" y2="153.53599553044438" stroke="orange" stroke-width="5"/>
<line x1="68.9922042634299" y1="153.53599553044438" x2="66.55721859666212" y2="152.82474658356085" stroke="orange" stroke-width="5"/>
<line x1="66.55721859666212" y1="152.82474658356085" x2="64.32352119506419" y2="152.37369810447132" stroke="orange" stroke-width="5"/>
<line x1="64.32352119506419" y1="152.37369810447132" x2="62.379170486542975" y2="151.99823240415958" stroke="orange" stroke-width="5"/>
<line x1="62.379170486542975" y1="151.99823240415958" x2="58.72546332731706" y2="151.0627690783448" stroke="orange" stroke-width="5"/>
<line x1="58.72546332731706" y1="151.0627690783448" x2="54.92326352704575" y2="150.33020955262828" stroke="orange" stroke-width="5"/>
<line x1="54.92326352704575" y1="150.33020955262828" x2="50.183739240586675" y2="149.92369875684398" stroke="orange" stroke-width="5"/>
<line x1="50.183739240586675" y1="149.92369875684398" x2="45.19320343427751" y2="148.8980177420057" stroke="orange" stroke-width="5"/>
<line x1="45.19320343427751" y1="148.8980177420057" x2="41.901185706813926" y2="148.11816222952825" stroke="orange" stroke-width="5"/>
<line x1="41.901185706813926" y1="148.11816222952825" x2="37.5472455540454" y2="146.30401898219836" stroke="orange" stroke-width="5"/>
<line x1="37.5472455540454" y1="146.30401898219836" x2="33.53926889134466" y2="143.07536248972357" stroke="orange" stroke-width="5"/>
<line x1="33.53926889134466" y1="143.07536248972357" x2="29.62171107178123" y2="139.98173122312426" stroke="orange" stroke-width="5"/>
<line x1="29.62171107178123" y1="139.98173122312426" x2="25.348723392301487" y2="138.58104251305778" stroke="orange" stroke-width="5"/>
<line x1="25.348723392301487" y1="138.58104251305778" x2="21.187355471561684" y2="137.10731250169513" stroke="orange" stroke-width="5"/>
<line x1="21.187355471561684" y1="137.10731250169513" x2="17.761306561892717" y2="135.35046038403075" stroke="orange" stroke-width="5"/>
<line x1="17.761306561892717" y1="135.35046038403075" x2="14.383402789148166" y2="133.56687967011578" stroke="orange" stroke-width="5"/>
<line x1="14.383402789148166" y1="133.56687967011578" x2="12.073616695487676" y2="132.20682345171448" stroke="orange" stroke-width="5"/>
<line x1="12.073616695487676" y1="132.20682345171448" x2="9.203764126678166" y2="129.63386073339302" stroke="orange" stroke-width="5"/>
<line x1="9.203764126678166" y1="129.63386073339302" x2="6.58680752389704" y2="127.4596594845996" stroke="orange" stroke-width="5"/>
<line x1="6.58680752389704" y1="127.4596594845996" x2="3.689167624424048" y2="124.46967421286863" stroke="orange" stroke-width="5"/>
<line x1="3.689167624424048" y1="124.46967421286863" x2="0.0" y2="121.16112177319806" stroke="orange" stroke-width="5"/>
</svg>
